<?xml version="1.0" encoding="UTF-8" standalone="no"?>
<!-- Created with Inkscape (http://www.inkscape.org/) -->

<svg
   width="183.29306mm"
   height="52.89011mm"
   viewBox="0 0 183.29306 52.89011"
   version="1.1"
   id="svg1"
   xml:space="preserve"
   inkscape:version="1.3.2 (091e20e, 2023-11-25, custom)"
   sodipodi:docname="netpasspop.svg"
   xmlns:inkscape="http://www.inkscape.org/namespaces/inkscape"
   xmlns:sodipodi="http://sodipodi.sourceforge.net/DTD/sodipodi-0.dtd"
   xmlns:xlink="http://www.w3.org/1999/xlink"
   xmlns="http://www.w3.org/2000/svg"
   xmlns:svg="http://www.w3.org/2000/svg"><sodipodi:namedview
     id="namedview1"
     pagecolor="#505050"
     bordercolor="#ffffff"
     borderopacity="1"
     inkscape:showpageshadow="0"
     inkscape:pageopacity="0"
     inkscape:pagecheckerboard="1"
     inkscape:deskcolor="#505050"
     inkscape:document-units="mm"
     inkscape:zoom="1"
     inkscape:cx="362.49999"
     inkscape:cy="-15.5"
     inkscape:window-width="1920"
     inkscape:window-height="1121"
     inkscape:window-x="-9"
     inkscape:window-y="-9"
     inkscape:window-maximized="1"
     inkscape:current-layer="layer1" /><defs
     id="defs1"><linearGradient
       id="linearGradient5"
       inkscape:collect="always"><stop
         style="stop-color:#3ea6d2;stop-opacity:1;"
         offset="0.11147541"
         id="stop6" /><stop
         style="stop-color:#1fae5e;stop-opacity:1;"
         offset="0.67868853"
         id="stop5" /></linearGradient><inkscape:path-effect
       effect="powerclip"
       id="path-effect11"
       is_visible="true"
       lpeversion="1"
       inverse="true"
       flatten="false"
       hide_clip="false"
       message="Use fill-rule evenodd on &lt;b&gt;fill and stroke&lt;/b&gt; dialog if no flatten result after convert clip to paths." /><inkscape:path-effect
       effect="powerclip"
       id="path-effect10"
       is_visible="true"
       lpeversion="1"
       inverse="true"
       flatten="false"
       hide_clip="false"
       message="Use fill-rule evenodd on &lt;b&gt;fill and stroke&lt;/b&gt; dialog if no flatten result after convert clip to paths." /><inkscape:path-effect
       effect="powerclip"
       id="path-effect3"
       is_visible="true"
       lpeversion="1"
       inverse="true"
       flatten="false"
       hide_clip="false"
       message="Use fill-rule evenodd on &lt;b&gt;fill and stroke&lt;/b&gt; dialog if no flatten result after convert clip to paths." /><linearGradient
       inkscape:collect="always"
       xlink:href="#linearGradient5"
       id="linearGradient6"
       x1="84.132912"
       y1="104.33776"
       x2="131.86221"
       y2="104.33776"
       gradientUnits="userSpaceOnUse"
       gradientTransform="rotate(-90,107.99756,104.33776)" /></defs><g
     inkscape:label="Layer 1"
     inkscape:groupmode="layer"
     id="layer1"
     transform="translate(-16.351469,-77.892557)"><path
       id="path2"
       style="display:inline;opacity:1;fill:#ffffff;fill-opacity:1;stroke-width:0.962559"
       sodipodi:type="inkscape:offset"
       inkscape:radius="2.5796876"
       inkscape:original="M 42.802734 80.472656 C 41.619251 80.471156 40.425759 80.557839 39.228516 80.734375 C 35.111193 81.341482 31.113476 83.091642 27.814453 85.732422 C 26.871101 86.48755 24.922904 88.435571 24.183594 89.363281 C 20.589054 93.873826 18.772316 99.296973 18.941406 105.00586 C 19.016756 107.55001 19.395715 109.69195 20.175781 111.98047 C 21.127557 114.77276 22.476119 117.20274 24.332031 119.4707 C 28.500633 124.56479 34.669358 127.73444 41.238281 128.1543 C 47.081122 128.52775 52.834417 126.75586 57.447266 123.16406 C 58.91302 122.02274 60.473761 120.46176 61.613281 118.99805 C 64.207034 115.66639 65.903686 111.61819 66.439453 107.48047 C 67.143279 102.04488 66.006707 96.606789 63.201172 91.974609 C 58.832038 84.760803 51.087117 80.483058 42.802734 80.472656 z M 42.830078 88.109375 C 44.519745 88.109084 45.276647 88.194717 46.697266 88.544922 C 53.25743 90.162107 58.204199 95.809117 58.931641 102.50781 C 59.034616 103.45602 59.018681 105.46686 58.900391 106.375 C 57.936853 113.77232 52.150204 119.54205 44.783203 120.44922 C 44.362676 120.50102 43.766988 120.52706 43.154297 120.53516 L 43.154297 110.25781 C 43.435012 110.40954 43.774339 110.48974 44.058594 110.56445 C 45.241868 110.8551 46.530499 110.92589 47.734375 110.63672 C 49.312124 110.25312 50.720112 109.26212 51.65625 107.94141 C 52.284788 107.01795 52.702873 105.96541 52.925781 104.87305 C 53.114235 104.09464 53.129825 103.29445 53.142578 102.49805 C 51.932272 102.07507 50.850182 102.11814 49.779297 102.16602 C 48.56347 102.24032 47.391601 102.66766 46.292969 103.24805 C 45.088786 103.93423 43.987094 104.88519 43.322266 106.11719 C 42.994275 106.75893 42.749755 107.44379 42.5625 108.13477 C 42.5561 108.16257 42.551415 108.19075 42.546875 108.21875 C 42.542375 108.19075 42.53765 108.16257 42.53125 108.13477 C 42.343995 107.44379 42.097522 106.75893 41.769531 106.11719 C 41.104703 104.88519 40.003011 103.93423 38.798828 103.24805 C 37.700196 102.66766 36.528327 102.24032 35.3125 102.16602 C 34.241615 102.11812 33.159525 102.07509 31.949219 102.49805 C 31.961969 103.29445 31.979514 104.09464 32.167969 104.87305 C 32.390876 105.96541 32.808962 107.01795 33.4375 107.94141 C 34.373638 109.26212 35.781626 110.25312 37.359375 110.63672 C 38.563251 110.92592 39.851882 110.85513 41.035156 110.56445 C 41.310168 110.49215 41.634897 110.41367 41.910156 110.27148 L 41.910156 120.52148 C 41.515804 120.50658 41.147648 120.48402 40.859375 120.44922 C 36.188152 119.88402 31.947721 117.23317 29.283203 113.20898 C 27.964627 111.21756 27.035348 108.63013 26.748047 106.1543 C 26.616869 105.02389 26.652062 102.95021 26.820312 101.86523 C 27.079556 100.19344 27.552816 98.712099 28.34375 97.101562 C 29.915321 93.901453 32.485391 91.331379 35.685547 89.759766 C 36.891462 89.167534 37.71988 88.858468 38.857422 88.572266 C 40.326832 88.202568 41.1198 88.10964 42.830078 88.109375 z M 114.71094 90.371094 C 114.37753 92.223382 114.00926 94.410194 113.71289 96.707031 L 111.19336 96.779297 L 111.37891 101.81836 L 113.15625 101.74414 C 112.97102 103.74461 112.85937 105.55906 112.85938 106.9668 C 112.85938 112.33844 115.00927 115.22852 119.26953 115.22852 C 120.67727 115.22852 122.34308 114.89541 124.23242 114.26562 L 123.12109 109.04297 C 122.04677 109.52456 121.11989 109.7832 120.41602 109.7832 C 119.2676 109.7832 118.63867 109.04174 118.63867 107.18945 C 118.63867 105.33716 118.75032 103.44792 118.93555 101.55859 L 124.08398 101.37305 L 123.89844 96.335938 L 119.60156 96.484375 C 119.89793 94.595042 120.27018 92.780149 120.64062 91.001953 L 114.71094 90.371094 z M 91.814453 90.380859 L 85.701172 91.158203 C 87.071865 96.640976 87.8125 102.67888 87.8125 106.75391 C 87.8125 107.34665 87.812436 107.90323 87.775391 108.42188 C 87.627208 110.27415 87.182512 111.05273 86.552734 111.05273 C 86.108185 111.05273 85.628016 110.68257 85.109375 110.08984 C 81.701165 106.0889 77.624644 99.420408 75.142578 90.603516 L 69.808594 91.677734 L 68.697266 116.42383 L 74.884766 116.83203 L 74.810547 103.38477 C 76.736927 108.12663 79.292135 112.38589 82.21875 115.3125 C 83.552397 116.64615 85.405461 117.38672 87.220703 117.38672 C 89.765555 117.38672 92.222265 115.86164 93.126953 112.05664 C 93.919972 116.03529 97.031646 118.2207 102.62695 118.2207 C 107.10949 118.2207 110.66549 116.1836 112.62891 112.77539 L 108.99805 109.58984 C 107.84964 111.70145 105.10908 113.58984 102.66406 113.58984 C 99.255854 113.58984 98.21875 112.591 98.21875 109.84961 C 98.21875 109.59029 98.255929 109.29252 98.292969 109.0332 L 100.14453 112.25781 C 103.29342 111.5169 107.44144 109.99688 109.73828 108.18164 C 111.14602 107.07026 111.74023 105.88475 111.74023 104.73633 C 111.74023 102.10608 108.51606 99.773437 104.21875 99.773438 C 103.47783 99.773438 102.69984 99.845962 101.92188 99.994141 C 97.920931 100.73404 94.915685 103.42034 93.621094 106.50781 C 93.623894 106.2936 93.628906 106.08096 93.628906 105.86523 C 93.628906 100.64178 92.88878 94.974533 91.814453 90.380859 z M 134.95312 90.621094 C 130.91513 90.621094 126.43216 91.140135 123.32031 91.992188 L 124.43164 97.548828 C 125.2096 97.363599 125.98773 97.177417 126.80273 96.992188 L 127.54492 117.47852 L 133.61914 117.21875 L 133.21289 105.55078 L 134.54492 109.95898 C 137.66247 109.1796 141.68894 107.31794 143.46094 105.99023 C 142.97788 107.21641 142.70898 108.57832 142.70898 110.05469 C 142.70898 115.01882 145.63554 117.5 150.63672 117.5 C 153.89675 117.5 155.97267 116.12932 157.12109 114.0918 L 157.56445 117.31445 L 162.93555 116.46289 L 160.75 105.3125 L 159.15625 105.64453 L 161.41797 101.42188 C 159.12113 99.828904 156.56417 99.087891 154.11914 99.087891 C 151.55535 99.087891 149.10089 99.881514 147.12891 101.30469 C 147.51214 100.33446 147.69727 99.36669 147.69727 98.4375 C 147.69727 95.251565 145.62311 92.472828 142.25195 91.435547 C 140.39966 90.842814 137.76861 90.621094 134.95312 90.621094 z M 42.519531 92.783203 C 41.270993 92.786403 40.037434 93.259332 39.103516 94.158203 C 38.189047 95.038355 37.672867 96.131251 37.566406 97.408203 C 37.46327 98.64529 37.879555 99.952623 38.693359 100.94531 C 39.542943 101.98166 40.804264 102.63739 42.152344 102.74219 C 43.324637 102.83329 44.491495 102.49789 45.474609 101.78711 C 45.775358 101.56966 46.273556 101.07895 46.496094 100.7793 C 47.007881 100.0902 47.321949 99.335071 47.453125 98.484375 C 47.509285 98.120182 47.509305 97.427587 47.453125 97.060547 C 47.199639 95.404457 46.201887 94.029068 44.720703 93.294922 C 44.022965 92.949088 43.268654 92.781276 42.519531 92.783203 z M 42.480469 94.007812 C 42.728951 94.007615 42.862611 94.011217 42.978516 94.023438 C 43.060926 94.147589 43.202545 94.397034 43.316406 94.660156 C 43.433439 94.930606 43.564634 95.315855 43.660156 95.652344 C 43.690766 95.76016 43.716917 95.86929 43.742188 95.978516 C 43.614334 95.957526 43.486372 95.937955 43.365234 95.921875 C 43.08 95.884015 42.697968 95.870037 42.539062 95.867188 L 42.537109 95.867188 C 42.378203 95.870087 41.99422 95.884025 41.708984 95.921875 C 41.546705 95.943415 41.374333 95.96944 41.203125 96 C 41.228765 95.883152 41.257403 95.767663 41.289062 95.652344 C 41.381642 95.315033 41.508379 94.929665 41.623047 94.658203 C 41.732054 94.400144 41.867132 94.156976 41.949219 94.029297 C 42.074052 94.014157 42.213078 94.007982 42.480469 94.007812 z M 43.722656 94.205078 C 44.257371 94.392241 44.715095 94.683975 45.136719 95.105469 C 45.592821 95.561431 45.874843 96.013073 46.068359 96.595703 C 46.081339 96.634793 46.091856 96.673725 46.103516 96.712891 C 46.101816 96.712098 46.101409 96.711738 46.099609 96.710938 C 45.868039 96.605454 45.485696 96.419659 45.158203 96.322266 C 44.879391 96.239356 44.627544 96.171699 44.382812 96.111328 C 44.315703 95.829523 44.249247 95.530418 44.142578 95.214844 C 44.034955 94.896446 43.857436 94.505008 43.751953 94.273438 C 43.740303 94.247867 43.732786 94.228198 43.722656 94.205078 z M 41.207031 94.21875 C 41.198831 94.23785 41.192804 94.252747 41.183594 94.273438 C 41.080136 94.50592 40.907576 94.899425 40.802734 95.21875 C 40.697893 95.538076 40.631636 95.840419 40.566406 96.125 C 40.565206 96.1302 40.565653 96.135405 40.564453 96.140625 C 40.356379 96.190825 40.142833 96.246259 39.917969 96.322266 C 39.59957 96.42989 39.208132 96.605454 38.976562 96.710938 C 38.923262 96.735218 38.876631 96.755548 38.833984 96.773438 C 38.849114 96.717538 38.863309 96.661205 38.880859 96.607422 C 39.243299 95.49656 40.109592 94.621405 41.207031 94.21875 z M 32.978516 94.291016 C 32.951206 94.290724 32.916568 94.295341 32.871094 94.306641 C 32.695881 94.350361 32.558714 94.516521 32.425781 94.660156 C 32.325361 94.768662 32.247489 94.904971 32.167969 95.037109 C 32.053499 95.227354 31.939646 95.423147 31.853516 95.634766 C 31.74795 95.894154 31.648802 96.163683 31.607422 96.449219 C 31.524262 97.024239 31.529441 97.628201 31.613281 98.203125 C 31.654631 98.486853 31.749116 98.755561 31.853516 99.013672 C 31.939336 99.225868 32.053415 99.420735 32.167969 99.611328 C 32.247409 99.743517 32.325292 99.879894 32.425781 99.988281 C 32.558676 100.13162 32.702165 100.2859 32.873047 100.3418 C 32.944837 100.3652 33.029743 100.37013 33.095703 100.32812 C 33.160733 100.28673 33.225469 100.20503 33.230469 100.11523 C 33.245269 99.848574 33.008495 99.664375 32.902344 99.421875 C 32.765904 99.110146 32.658785 98.777312 32.578125 98.4375 C 32.528085 98.22666 32.496899 98.007749 32.480469 97.789062 C 32.457229 97.480313 32.457269 97.168126 32.480469 96.859375 C 32.496929 96.640262 32.527965 96.422163 32.578125 96.210938 C 32.658705 95.871509 32.775582 95.543968 32.902344 95.226562 C 32.998164 94.98663 33.244899 94.801842 33.230469 94.535156 C 33.225569 94.444976 33.166145 94.346162 33.095703 94.320312 L 33.09375 94.322266 C 33.05168 94.306666 33.024028 94.291496 32.978516 94.291016 z M 52.158203 94.291016 C 52.112693 94.291503 52.083085 94.306666 52.041016 94.322266 C 51.97116 94.348872 51.909153 94.445564 51.904297 94.535156 C 51.889867 94.801842 52.138551 94.986629 52.234375 95.226562 C 52.361137 95.543969 52.476063 95.871509 52.556641 96.210938 C 52.606791 96.422162 52.63979 96.640262 52.65625 96.859375 C 52.67945 97.168126 52.67949 97.480313 52.65625 97.789062 C 52.63983 98.00775 52.606681 98.22666 52.556641 98.4375 C 52.475981 98.777312 52.370815 99.110146 52.234375 99.421875 C 52.128224 99.664375 51.889495 99.848574 51.904297 100.11523 C 51.909297 100.20503 51.975987 100.28669 52.041016 100.32812 C 52.106976 100.37013 52.191878 100.3652 52.263672 100.3418 C 52.434553 100.2859 52.576089 100.13162 52.708984 99.988281 C 52.809473 99.879894 52.889309 99.743517 52.96875 99.611328 C 53.083304 99.420735 53.195426 99.225868 53.28125 99.013672 C 53.385649 98.755561 53.482087 98.486853 53.523438 98.203125 C 53.607228 97.628201 53.610534 97.024239 53.527344 96.449219 C 53.485964 96.163683 53.386816 95.894154 53.28125 95.634766 C 53.19512 95.423147 53.08322 95.227354 52.96875 95.037109 C 52.88923 94.904971 52.809404 94.768662 52.708984 94.660156 C 52.576051 94.516521 52.438885 94.350366 52.263672 94.306641 C 52.218202 94.295291 52.18551 94.290726 52.158203 94.291016 z M 35.027344 95.189453 C 35.006154 95.189107 34.981775 95.193085 34.953125 95.203125 C 34.824207 95.248335 34.716181 95.357408 34.615234 95.462891 C 34.538974 95.542571 34.478349 95.643194 34.417969 95.740234 C 34.331039 95.879945 34.247051 96.022325 34.181641 96.177734 C 34.101471 96.368224 34.025561 96.567652 33.994141 96.777344 C 33.930951 97.199627 33.932464 97.64224 33.996094 98.064453 C 34.027494 98.272818 34.102361 98.470604 34.181641 98.660156 C 34.246811 98.815989 34.330979 98.959642 34.417969 99.099609 C 34.478299 99.196689 34.538924 99.2954 34.615234 99.375 C 34.716151 99.480272 34.823361 99.593726 34.953125 99.634766 C 35.007645 99.651956 35.072957 99.65587 35.123047 99.625 C 35.172427 99.59457 35.222767 99.534723 35.226562 99.46875 C 35.237803 99.272921 35.057173 99.137071 34.976562 98.958984 C 34.872952 98.730056 34.791719 98.485879 34.730469 98.236328 C 34.692469 98.081491 34.66872 97.922319 34.65625 97.761719 C 34.6386 97.53498 34.63863 97.304867 34.65625 97.078125 C 34.66875 96.917214 34.692389 96.756682 34.730469 96.601562 C 34.791659 96.352294 34.880302 96.112003 34.976562 95.878906 C 35.049332 95.702704 35.237522 95.566943 35.226562 95.371094 C 35.222862 95.304874 35.176533 95.231871 35.123047 95.212891 C 35.091097 95.201421 35.062664 95.190033 35.027344 95.189453 z M 50.109375 95.189453 C 50.074045 95.19003 50.045622 95.201421 50.013672 95.212891 C 49.960182 95.231871 49.913869 95.304874 49.910156 95.371094 C 49.899196 95.566943 50.087388 95.702704 50.160156 95.878906 C 50.256416 96.112003 50.343107 96.352294 50.404297 96.601562 C 50.442377 96.756682 50.467969 96.917214 50.480469 97.078125 C 50.498089 97.304867 50.498119 97.53498 50.480469 97.761719 C 50.467999 97.922319 50.442297 98.081491 50.404297 98.236328 C 50.343047 98.485879 50.263766 98.730056 50.160156 98.958984 C 50.079546 99.137071 49.898916 99.272921 49.910156 99.46875 C 49.913956 99.53472 49.964289 99.594567 50.013672 99.625 C 50.063762 99.65587 50.127121 99.651956 50.181641 99.634766 C 50.311405 99.593726 50.420567 99.480272 50.521484 99.375 C 50.597794 99.2954 50.656471 99.196685 50.716797 99.099609 C 50.803787 98.959642 50.889904 98.815989 50.955078 98.660156 C 51.034358 98.470604 51.107271 98.272818 51.138672 98.064453 C 51.202302 97.64224 51.205788 97.199627 51.142578 96.777344 C 51.111158 96.567652 51.035243 96.368224 50.955078 96.177734 C 50.889668 96.022325 50.803723 95.879945 50.716797 95.740234 C 50.656417 95.643194 50.597741 95.542576 50.521484 95.462891 C 50.420537 95.357408 50.310559 95.248338 50.181641 95.203125 C 50.153001 95.193085 50.130565 95.189113 50.109375 95.189453 z M 135.62109 96.029297 C 137.17701 96.029297 138.58375 96.141134 139.58398 96.4375 C 140.91763 96.807957 141.69531 97.734267 141.69531 98.808594 C 141.69531 99.54951 141.32477 100.40166 140.50977 101.14258 C 139.13907 102.47623 135.58376 103.73539 133.17578 104.32812 L 132.91602 96.732422 L 127.21094 96.917969 C 130.06346 96.362283 133.10197 96.029297 135.62109 96.029297 z M 173.0332 96.115234 C 169.73613 96.115234 167.21727 96.709131 165.2168 97.931641 C 162.95701 99.302335 161.66016 101.26484 161.66016 103.08008 C 161.66016 104.93237 163.06791 106.56156 166.2168 107.1543 C 168.43955 107.5618 171.69905 108.37759 172.73633 108.74805 C 173.4402 109.00737 173.77344 109.19362 173.77344 109.3418 C 173.77344 109.52703 173.29163 109.63691 172.51367 109.74805 C 172.03207 109.82215 170.99595 109.85938 169.77344 109.85938 C 167.92115 109.85938 165.54943 109.74949 163.62305 109.45312 L 164.06836 114.3418 C 165.43906 114.45294 167.14166 114.56445 168.88281 114.56445 C 171.36487 114.56445 173.9209 114.37997 175.625 113.86133 C 178.18116 113.04632 179.47852 111.23132 179.47852 109.45312 C 179.47852 107.82312 178.36734 106.1919 176.18164 105.33984 C 174.07004 104.52484 170.51357 103.5618 168.17969 103.1543 C 167.58695 103.04316 167.29102 102.81975 167.29102 102.48633 C 167.29102 102.22701 167.51242 101.93113 167.91992 101.63477 C 168.84606 100.96794 170.92064 100.52344 172.47656 100.52344 C 172.66179 100.52344 172.88508 100.56055 173.07031 100.56055 C 173.92236 100.63465 174.40234 101.04241 174.40234 101.85742 C 174.40234 102.19083 174.29258 102.63566 174.07031 103.1543 L 178.99805 103.96875 C 179.36851 102.93147 179.51562 101.96924 179.51562 101.11719 C 179.51562 98.227614 177.66237 96.337573 174.40234 96.152344 C 173.92074 96.115294 173.47775 96.115234 173.0332 96.115234 z M 36.857422 96.181641 C 36.843492 96.181448 36.827424 96.183953 36.808594 96.189453 C 36.723864 96.214453 36.652287 96.275654 36.585938 96.333984 C 36.535818 96.378044 36.496712 96.432666 36.457031 96.486328 C 36.399901 96.563588 36.343771 96.642576 36.300781 96.728516 C 36.248091 96.833854 36.198384 96.944591 36.177734 97.060547 C 36.136134 97.294064 36.137838 97.538006 36.179688 97.771484 C 36.200328 97.886707 36.248669 97.996743 36.300781 98.101562 C 36.343621 98.187732 36.399848 98.26635 36.457031 98.34375 C 36.496681 98.39743 36.535776 98.452074 36.585938 98.496094 C 36.652268 98.554304 36.723304 98.617935 36.808594 98.640625 C 36.844424 98.650125 36.886998 98.651856 36.919922 98.634766 C 36.952382 98.617936 36.985781 98.585308 36.988281 98.548828 C 36.995681 98.440537 36.877199 98.366058 36.824219 98.267578 C 36.756119 98.140984 36.702369 98.005185 36.662109 97.867188 C 36.637129 97.781567 36.621481 97.692326 36.613281 97.603516 C 36.601681 97.478134 36.601701 97.351948 36.613281 97.226562 C 36.621481 97.137582 36.637079 97.048671 36.662109 96.962891 C 36.702329 96.825049 36.760949 96.691399 36.824219 96.5625 C 36.872049 96.46506 36.995481 96.389552 36.988281 96.28125 C 36.985881 96.24463 36.955082 96.205813 36.919922 96.195312 C 36.898922 96.189013 36.880632 96.181961 36.857422 96.181641 z M 48.277344 96.181641 C 48.254124 96.181963 48.235844 96.188993 48.214844 96.195312 C 48.179684 96.205812 48.150878 96.24463 48.148438 96.28125 C 48.141238 96.389552 48.264672 96.465063 48.3125 96.5625 C 48.37577 96.691399 48.432438 96.825049 48.472656 96.962891 C 48.497686 97.048671 48.515217 97.13758 48.523438 97.226562 C 48.535018 97.351947 48.535037 97.478134 48.523438 97.603516 C 48.515237 97.692326 48.497636 97.781565 48.472656 97.867188 C 48.432396 98.005184 48.3806 98.140984 48.3125 98.267578 C 48.25952 98.366058 48.141052 98.440537 48.148438 98.548828 C 48.150937 98.585308 48.182384 98.617936 48.214844 98.634766 C 48.247764 98.651836 48.290338 98.650135 48.326172 98.640625 C 48.411462 98.617935 48.482499 98.554308 48.548828 98.496094 C 48.598988 98.452074 48.638083 98.397432 48.677734 98.34375 C 48.734914 98.26635 48.791147 98.187735 48.833984 98.101562 C 48.886094 97.996742 48.934439 97.886707 48.955078 97.771484 C 48.996898 97.538006 48.998601 97.294064 48.957031 97.060547 C 48.936381 96.944591 48.886674 96.833854 48.833984 96.728516 C 48.790994 96.642576 48.736821 96.563587 48.679688 96.486328 C 48.640008 96.432668 48.598949 96.378049 48.548828 96.333984 C 48.482478 96.275654 48.410906 96.214455 48.326172 96.189453 C 48.307352 96.183853 48.291284 96.181441 48.277344 96.181641 z M 42.537109 96.441406 C 42.645066 96.441414 42.765659 96.447184 42.878906 96.458984 C 43.198035 96.492134 43.514784 96.546035 43.830078 96.605469 C 43.843548 96.607969 43.857624 96.610681 43.871094 96.613281 C 43.925144 96.904944 43.973277 97.199165 44.003906 97.494141 C 44.015686 97.60756 44.023448 97.726027 44.023438 97.833984 C 44.023429 97.941941 44.015706 98.062533 44.003906 98.175781 C 43.973996 98.463769 43.927494 98.750334 43.875 99.035156 C 43.8607 99.037956 43.846331 99.040169 43.832031 99.042969 C 43.517268 99.105149 43.199686 99.161336 42.880859 99.197266 C 42.767718 99.210036 42.648969 99.219753 42.541016 99.220703 C 42.433063 99.221653 42.312735 99.215878 42.199219 99.205078 C 41.879811 99.174728 41.561894 99.123082 41.246094 99.066406 C 41.198444 99.057806 41.151143 99.047873 41.103516 99.039062 C 41.048306 98.753731 40.997381 98.466451 40.964844 98.177734 C 40.952074 98.064594 40.944309 97.945844 40.943359 97.837891 C 40.942409 97.729938 40.948184 97.609611 40.958984 97.496094 C 40.986314 97.20848 41.032158 96.923326 41.082031 96.638672 C 41.136521 96.628042 41.18962 96.615749 41.244141 96.605469 C 41.559434 96.546039 41.878136 96.49212 42.197266 96.458984 C 42.310685 96.447204 42.429152 96.441396 42.537109 96.441406 z M 44.503906 96.746094 C 44.576426 96.763974 44.648852 96.784287 44.720703 96.804688 C 45.057193 96.900207 45.440487 97.031405 45.710938 97.148438 C 45.913334 97.236018 46.110065 97.340589 46.246094 97.421875 C 46.272984 97.685424 46.271071 97.946407 46.244141 98.203125 C 46.108639 98.286025 45.911309 98.393852 45.707031 98.484375 C 45.437614 98.603764 45.054394 98.737488 44.71875 98.835938 C 44.6486 98.856517 44.578628 98.876361 44.507812 98.894531 C 44.519672 98.815781 44.531016 98.737506 44.541016 98.662109 C 44.578876 98.376874 44.592853 97.994843 44.595703 97.835938 L 44.595703 97.833984 C 44.592803 97.675077 44.578866 97.291095 44.541016 97.005859 C 44.529856 96.921749 44.517376 96.834193 44.503906 96.746094 z M 40.449219 96.779297 C 40.437939 96.858837 40.427399 96.937544 40.417969 97.013672 C 40.382609 97.299226 40.372594 97.68287 40.371094 97.841797 L 40.371094 97.84375 C 40.375294 98.002624 40.393234 98.385029 40.433594 98.669922 C 40.444374 98.746062 40.45604 98.824768 40.46875 98.904297 C 40.43083 98.894697 40.393197 98.88536 40.355469 98.875 C 40.018158 98.78242 39.63279 98.655684 39.361328 98.541016 C 39.092321 98.427385 38.835192 98.28367 38.712891 98.203125 C 38.691161 97.975715 38.689544 97.737265 38.708984 97.498047 C 38.710784 97.496847 38.713044 97.495341 38.714844 97.494141 C 38.835057 97.412991 39.09283 97.265469 39.363281 97.148438 C 39.633731 97.031404 40.01898 96.90021 40.355469 96.804688 C 40.386669 96.795788 40.417879 96.787657 40.449219 96.779297 z M 46.097656 98.919922 C 45.755585 100.03952 44.908527 100.97632 43.753906 101.39258 C 43.859564 101.1608 44.045495 100.78153 44.142578 100.45508 C 44.239968 100.12759 44.317059 99.834783 44.384766 99.550781 C 44.386166 99.545081 44.387372 99.538933 44.388672 99.533203 C 44.6328 99.470713 44.884115 99.401723 45.162109 99.316406 C 45.488133 99.216345 45.866891 99.027526 46.097656 98.919922 z M 38.865234 98.933594 C 38.900554 98.948334 38.934684 98.961829 38.976562 98.980469 C 39.209044 99.083927 39.60255 99.256486 39.921875 99.361328 C 40.156302 99.438298 40.37774 99.491167 40.59375 99.541016 C 40.59485 99.545616 40.596556 99.552091 40.597656 99.556641 C 40.667836 99.840042 40.747412 100.13235 40.847656 100.45898 C 40.947903 100.78561 41.136641 101.16585 41.244141 101.39648 C 41.246541 101.40148 41.249553 101.40516 41.251953 101.41016 C 40.121672 101.02248 39.233511 100.10382 38.865234 98.933594 z M 190.58203 98.974609 C 187.28496 98.974609 184.7661 99.566553 182.76562 100.78906 C 180.50583 102.15975 179.20898 104.12225 179.20898 105.9375 C 179.20898 107.78978 180.61673 109.42094 183.76562 110.01367 C 185.98836 110.42117 189.24788 111.23501 190.28516 111.60547 C 190.98903 111.86479 191.32227 112.05103 191.32227 112.19922 C 191.32227 112.38445 190.84046 112.49629 190.0625 112.60742 C 189.5809 112.68152 188.54478 112.7168 187.32227 112.7168 C 185.46998 112.7168 183.09826 112.60692 181.17188 112.31055 L 181.61719 117.19922 C 182.98788 117.31036 184.69049 117.42188 186.43164 117.42188 C 188.9137 117.42188 191.46973 117.23739 193.17383 116.71875 C 195.72999 115.90374 197.02734 114.08875 197.02734 112.31055 C 197.02734 110.68054 195.91617 109.04932 193.73047 108.19727 C 191.61886 107.38226 188.0624 106.41923 185.72852 106.01172 C 185.13578 105.90059 184.83984 105.67911 184.83984 105.3457 C 184.83984 105.08638 185.06125 104.79051 185.46875 104.49414 C 186.39489 103.82732 188.46947 103.38281 190.02539 103.38281 C 190.21062 103.38281 190.43391 103.41992 190.61914 103.41992 C 191.47119 103.49402 191.95312 103.89984 191.95312 104.71484 C 191.95312 105.04825 191.84142 105.49308 191.61914 106.01172 L 196.54688 106.82812 C 196.91734 105.79085 197.06445 104.82666 197.06445 103.97461 C 197.06445 101.08504 195.21316 99.194995 191.95312 99.009766 C 191.47153 98.972716 191.02658 98.974609 190.58203 98.974609 z M 43.746094 99.671875 C 43.719594 99.787598 43.692566 99.903418 43.660156 100.01758 C 43.564636 100.35407 43.433439 100.73737 43.316406 101.00781 C 43.220826 101.22869 43.107055 101.43813 43.023438 101.57422 C 42.890412 101.59172 42.747109 101.60392 42.574219 101.60742 C 42.267684 101.61442 42.16465 101.61314 41.988281 101.58594 C 41.902871 101.45207 41.780213 101.23517 41.677734 101.00391 C 41.558345 100.73449 41.424622 100.35127 41.326172 100.01562 C 41.293142 99.903007 41.265531 99.789976 41.238281 99.675781 C 41.400551 99.702761 41.563179 99.725111 41.716797 99.744141 C 42.002352 99.779501 42.385995 99.789516 42.544922 99.791016 C 42.703796 99.786816 43.088153 99.770819 43.373047 99.730469 C 43.49323 99.713449 43.619294 99.693795 43.746094 99.671875 z M 154.23047 104.16406 C 155.60116 104.16406 157.08262 104.60744 158.56445 105.75586 L 155.23047 106.42383 C 155.26747 106.64611 155.26758 106.86757 155.26758 107.08984 C 155.26758 110.05351 153.49007 112.86914 151.11914 112.86914 C 149.04458 112.86914 148.22852 111.64684 148.22852 109.57227 C 148.22852 107.05316 150.82226 104.16406 154.23047 104.16406 z M 104.51562 104.18164 C 105.55291 104.18164 106.14648 104.58872 106.14648 105.07031 C 106.14648 105.36668 105.92294 105.69979 105.4043 106.0332 C 104.10769 106.84821 100.73629 108.03397 98.439453 108.47852 C 98.958094 106.84851 100.51409 105.07112 103.0332 104.4043 C 103.58889 104.25611 104.10812 104.18164 104.51562 104.18164 z "
       d="m 42.806641,77.892578 c -1.311644,-0.0017 -2.633634,0.09421 -3.955079,0.289063 -4.586742,0.676323 -8.989781,2.608453 -12.648437,5.537109 -1.280384,1.024913 -3.018144,2.758479 -4.037109,4.037109 -3.958596,4.967374 -5.989445,11.022397 -5.802735,17.326171 0.08166,2.75715 0.514755,5.21818 1.371094,7.73047 1.044399,3.06403 2.561592,5.79813 4.601562,8.29102 4.626384,5.6535 11.447184,9.15898 18.738282,9.625 6.468773,0.41345 12.848277,-1.55136 17.957031,-5.5293 1.664989,-1.29646 3.322403,-2.95404 4.617187,-4.61719 1.014639,-1.3033 1.735769,-2.7911 2.488282,-4.25586 a 2.5799456,2.5799456 0 0 0 2.390625,2.67188 l 6.1875,0.4082 a 2.5799456,2.5799456 0 0 0 2.75,-2.58789 l -0.01953,-3.48633 c 0.94997,1.32763 1.86447,2.71994 2.949219,3.80469 1.840855,1.84086 4.309304,2.83008 6.826172,2.83008 2.123201,0 4.231623,-1.02918 5.882813,-2.76367 0.497457,0.547 0.920875,1.16239 1.548828,1.57812 2.142329,1.41831 4.841103,2.01953 7.974606,2.01953 4.53042,0 8.44754,-1.96906 11.01563,-5.16601 1.54365,1.30842 3.46779,2.17382 5.62695,2.17382 1.78088,0 3.65021,-0.40213 5.66797,-1.0664 l 0.0293,0.83008 a 2.5799456,2.5799456 0 0 0 2.6875,2.48437 l 6.07422,-0.25976 a 2.5799456,2.5799456 0 0 0 2.46875,-2.66797 l -0.17383,-4.9668 c 1.41228,-0.40055 2.85018,-0.87725 4.21484,-1.47266 0.13499,2.71935 1.00299,5.19332 2.81836,6.85352 1.96407,1.79618 4.65288,2.53711 7.58008,2.53711 1.90647,0 3.61523,-0.46971 5.0664,-1.24024 a 2.5799456,2.5799456 0 0 0 2.26563,1.02344 l 5.37109,-0.85156 a 2.5799456,2.5799456 0 0 0 2.05078,-2.0293 c 1.11206,0.0728 2.20521,0.16211 3.49219,0.16211 2.60988,0 5.26566,-0.13622 7.49414,-0.81445 a 2.5799456,2.5799456 0 0 0 0.0312,-0.0117 c 0.90178,-0.28753 1.70704,-0.70955 2.42969,-1.21094 l 0.21094,2.32617 a 2.5799456,2.5799456 0 0 0 2.35937,2.33594 c 1.40366,0.11381 3.17214,0.23242 5.02344,0.23242 2.60989,0 5.26567,-0.13622 7.49414,-0.81445 a 2.5799456,2.5799456 0 0 0 0.0312,-0.0117 c 3.37154,-1.07498 5.65039,-3.8323 5.65039,-6.86523 0,-1.48805 -0.59052,-2.89056 -1.55859,-4.06836 a 2.5799456,2.5799456 0 0 0 0.92773,-0.54688 c 0.46802,-1.31041 0.66797,-2.57172 0.66797,-3.7207 0,-1.9957 -0.7046,-3.95672 -2.10351,-5.333985 -1.39575,-1.374152 -3.33464,-2.083452 -5.42774,-2.205078 -0.59099,-0.04345 -1.10437,-0.04102 -1.53125,-0.04102 -3.51892,0 -6.48935,0.659317 -8.96094,2.113281 -0.3478,-1.020023 -0.86097,-1.969013 -1.63086,-2.726562 -1.39621,-1.373841 -3.33467,-2.081502 -5.42773,-2.203125 -0.58396,-0.04303 -1.09506,-0.04297 -1.5293,-0.04297 -3.60335,0 -6.65026,0.663487 -9.15429,2.191406 -8e-4,4.84e-4 -0.001,0.0015 -0.002,0.002 -1.17831,0.715044 -2.15756,1.613893 -2.95898,2.607421 -2.20587,-1.111171 -4.51308,-1.828124 -6.79883,-1.828125 -1.39694,0 -2.75366,0.25308 -4.0625,0.626954 -0.53598,-3.742997 -3.17194,-6.966797 -7.03906,-8.160157 -2.34564,-0.746658 -5.12181,-0.933593 -8.06446,-0.933593 -4.25904,0 -8.85131,0.514652 -12.31445,1.46289 a 2.5799456,2.5799456 0 0 0 -0.01,0.01563 2.5799456,2.5799456 0 0 0 -1.71485,-1.082031 l -5.92968,-0.630859 a 2.5799456,2.5799456 0 0 0 -2.8125,2.107421 c -0.22324,1.240217 -0.44881,2.790001 -0.67383,4.275391 l -0.37891,0.01172 A 2.5799456,2.5799456 0 0 0 108.61523,96.875 l 0.043,1.160156 c -1.36112,-0.497244 -2.8216,-0.841797 -4.43945,-0.841797 -0.90863,0 -1.84149,0.08945 -2.77734,0.267578 -2.13674,0.397081 -3.997262,1.300194 -5.607426,2.457032 -0.316995,-3.550736 -0.788651,-7.049967 -1.507812,-10.125 A 2.5799456,2.5799456 0 0 0 91.488281,87.822266 L 85.375,88.599609 a 2.5799456,2.5799456 0 0 0 -2.175781,3.183594 c 1.234343,4.937376 1.885857,10.342467 1.96875,14.115237 C 82.454411,102.0977 79.541725,96.712963 77.625,89.904297 a 2.5799456,2.5799456 0 0 0 -2.992188,-1.830078 l -5.333984,1.074218 A 2.5799456,2.5799456 0 0 0 67.232422,91.5625 l -0.113281,2.533203 C 66.622319,92.912762 66.079383,91.746847 65.408203,90.638672 60.573359,82.655939 51.97703,77.904093 42.806641,77.892578 Z m 3.115234,13.138672 c 0.05937,0.01439 0.09449,0.0019 0.158203,0.01758 1.357692,0.334693 2.631832,0.884765 3.794922,1.597656 -0.378605,0.04922 -0.742758,0.143551 -0.728516,0.138672 -0.340879,0.121793 -0.39482,0.311079 -0.595703,0.472656 -0.688728,-0.923719 -1.579103,-1.693191 -2.628906,-2.226562 z m -7.083984,0.287109 c -0.523694,0.300298 -1.075375,0.549221 -1.523438,0.980469 -0.292068,0.281108 -0.459115,0.657273 -0.701172,0.980469 -0.204828,-0.170047 -0.266605,-0.366779 -0.623047,-0.494141 0.0024,8.38e-4 -0.114818,-0.02033 -0.126953,-0.02539 0.338864,-0.204947 0.600178,-0.507382 0.958985,-0.683594 0.836061,-0.410595 1.377419,-0.566889 2.015625,-0.757813 z m 3.625,3.925782 0.732421,0.759765 -0.714843,0.447266 -0.732422,-0.445313 z m 1.902343,1.601562 1.082032,0.978516 -1.060547,0.96875 -0.628907,-0.986328 z m -3.751953,0.0039 0.591797,0.982422 -0.554687,0.945313 -0.04687,0.04297 -1.087891,-0.964843 z m 1.873047,0.558594 0.414063,0.412109 -0.414063,0.423829 -0.414062,-0.417969 z m 93.134762,1.201172 c 1.43231,0 2.69244,0.141362 3.23047,0.300781 a 2.5799456,2.5799456 0 0 0 0.041,0.01367 c 0.0956,0.02655 0.0664,0.0099 0.11328,0.02148 -0.0164,0.04698 0.0237,0.05803 -0.23047,0.289063 a 2.5799456,2.5799456 0 0 0 -0.0644,0.05859 c -0.1772,0.172404 -1.2379,0.836011 -2.45313,1.332031 -0.20405,0.0833 -0.40883,0.12175 -0.62109,0.20117 l -0.0742,-2.210936 c 0.017,-3.4e-5 0.0416,-0.0059 0.0586,-0.0059 z m -93.103512,0.517578 0.736328,0.478516 -0.763672,0.818361 -0.75,-0.792971 z m 13.109375,0.941407 c 0.297468,0.88988 0.637051,1.76857 0.740234,2.71875 0.05763,0.53064 0.03373,2.8 -0.02539,3.25391 -0.755746,5.80204 -5.042182,10.22948 -10.607422,11.47265 v -4.125 c 0.848964,0.0315 1.719777,-0.0323 2.601562,-0.24414 a 2.5799456,2.5799456 0 0 0 0.0078,-0.002 c 2.226458,-0.54132 4.128206,-1.88938 5.417969,-3.70899 a 2.5799456,2.5799456 0 0 0 0.02734,-0.041 c 0.83519,-1.22708 1.36423,-2.58915 1.650391,-3.9707 0.259778,-1.11151 0.27061,-2.09641 0.283203,-2.88282 a 2.5799456,2.5799456 0 0 0 -0.542969,-1.59961 c 0.119578,-0.19895 0.288224,-0.5018 0.447266,-0.87109 z m 112.996097,0.54492 c 0.0104,0.002 0.0378,0.01 0.041,0.0117 -0.0125,-0.002 -0.0285,-0.01 -0.041,-0.0117 z m -138.767581,0.13086 c 0.03385,0.0651 0.279948,0.44401 0.36914,0.56836 a 2.5799456,2.5799456 0 0 0 -0.855468,1.22656 c 0.01266,0.79055 0.02617,1.77505 0.285156,2.88282 0.286161,1.38155 0.815202,2.74362 1.65039,3.9707 a 2.5799456,2.5799456 0 0 0 0.02734,0.041 c 1.289763,1.81961 3.191511,3.16767 5.417969,3.70899 a 2.5799456,2.5799456 0 0 0 0.0059,0.002 c 0.871305,0.20931 1.734719,0.27679 2.574219,0.24805 v 4.06055 c -3.161914,-0.85749 -6.00392,-2.80966 -7.896484,-5.66797 -1.058734,-1.59899 -1.885443,-3.88017 -2.123047,-5.92774 -0.08345,-0.7191 -0.04173,-2.95071 0.05859,-3.59765 0.08357,-0.53893 0.350597,-1.02223 0.486328,-1.51563 z m 156.316401,2.72656 c 0.0104,0.002 0.0378,0.01 0.041,0.0117 -0.0125,-0.002 -0.0285,-0.01 -0.041,-0.0117 z m -61.70117,0.39063 0.11719,3.27148 a 2.5799456,2.5799456 0 0 0 -2.52148,-0.44336 c -0.44746,0.20058 -0.5418,0.18091 -0.83594,0.25977 0.005,-0.94442 0.0939,-1.92582 0.1543,-2.89649 l 2.79296,-0.10156 a 2.5799456,2.5799456 0 0 0 0.29297,-0.0898 z m 28.16992,3.38867 c -0.0379,0.90614 -0.30607,1.83223 -0.68164,2.37695 -0.40091,0.58149 -0.67556,0.66211 -0.83984,0.66211 -0.53064,0 -0.30999,-0.0251 -0.22852,0.0742 0.0815,0.0993 -0.082,-0.092 -0.082,-0.79101 0,-0.52129 0.73946,-1.66176 1.83203,-2.32227 z" /><ellipse
       style="display:inline;fill:#ffffff;fill-opacity:1;stroke-width:0.963001"
       id="path4"
       cx="137.18646"
       cy="99.384117"
       rx="2.4473958"
       ry="2.0174479" /><ellipse
       style="display:inline;fill:#ffffff;fill-opacity:1;stroke-width:0.963001"
       id="path5"
       cx="151.5401"
       cy="109.07448"
       rx="2.2489583"
       ry="2.5796874" /><ellipse
       style="display:inline;fill:#ffffff;fill-opacity:1;stroke-width:0.963001"
       id="path3"
       cx="43.264252"
       cy="104.62933"
       rx="14.078423"
       ry="16.22994" /><path
       id="rect3"
       style="display:inline;opacity:1;fill:url(#linearGradient6);stroke-width:0.962559"
       d="m 42.803581,80.473121 c -1.183483,-0.001 -2.377733,0.0844 -3.574976,0.26097 -4.117323,0.60711 -8.115267,2.35788 -11.41429,4.99866 -0.943352,0.75513 -2.890443,2.70256 -3.629753,3.63027 -3.59454,4.51054 -5.412697,9.9346 -5.243607,15.643489 0.07535,2.54415 0.454484,4.68573 1.23455,6.97425 0.951776,2.79229 2.299906,5.22254 4.155818,7.4905 4.168602,5.09409 10.338056,8.2623 16.906979,8.68216 5.842841,0.37345 11.596497,-1.39756 16.209346,-4.98936 1.465754,-1.14132 3.026634,-2.70193 4.166154,-4.16564 2.593753,-3.33166 4.289778,-7.37941 4.825545,-11.51713 0.703826,-5.43559 -0.431993,-10.874359 -3.237528,-15.506539 -4.369134,-7.21381 -12.113855,-11.49123 -20.398238,-11.50163 z m 0.02584,7.63623 c 1.689667,-2.9e-4 2.446329,0.0849 3.866948,0.43511 6.560164,1.61719 11.508503,7.26376 12.235945,13.962459 0.102975,0.94821 0.08625,2.96036 -0.03204,3.8685 -0.963539,7.39732 -6.750485,13.16639 -14.117486,14.07356 v 5.2e-4 c -0.420527,0.0518 -1.015116,0.0766 -1.627807,0.0847 v -10.27689 c 0.280715,0.15173 0.619565,0.23173 0.90382,0.30644 1.183274,0.29065 2.471352,0.36207 3.675228,0.0729 1.577749,-0.3836 2.986103,-1.37525 3.922241,-2.69596 0.628538,-0.92346 1.046266,-1.97515 1.269174,-3.06751 0.188454,-0.77841 0.205321,-1.57917 0.218074,-2.37557 -1.210306,-0.42298 -2.292734,-0.37964 -3.363619,-0.33176 -1.215827,0.0743 -2.38746,0.50171 -3.486092,1.0821 -1.204183,0.68618 -2.30605,1.63759 -2.970878,2.86959 -0.327991,0.64174 -0.573422,1.32647 -0.760677,2.01745 -0.0064,0.0278 -0.01148,0.0557 -0.01602,0.0837 -0.0045,-0.028 -0.0091,-0.0559 -0.0155,-0.0837 -0.187255,-0.69098 -0.432686,-1.37571 -0.760677,-2.01745 -0.664828,-1.232 -1.766695,-2.18341 -2.970878,-2.86959 -1.098632,-0.58039 -2.270265,-1.0078 -3.486092,-1.0821 -1.070885,-0.0479 -2.153313,-0.0912 -3.363619,0.33176 0.01275,0.7964 0.02962,1.59716 0.218075,2.37557 0.222907,1.09236 0.640635,2.14405 1.269173,3.06751 0.936138,1.32071 2.345009,2.31236 3.922758,2.69596 1.203876,0.2892 2.491437,0.21778 3.674711,-0.0729 0.275012,-0.0723 0.601173,-0.14978 0.876432,-0.29197 v 10.25002 c -0.394352,-0.0149 -0.763342,-0.037 -1.051615,-0.0718 -4.671223,-0.5652 -8.910486,-3.21723 -11.575004,-7.24142 -1.318576,-1.99142 -2.248462,-4.57748 -2.535763,-7.05331 -0.131178,-1.13041 -0.09642,-3.20572 0.07183,-4.2907 0.259244,-1.67179 0.733004,-3.151959 1.523938,-4.762499 1.571571,-3.20011 4.141515,-5.77006 7.341671,-7.34167 1.205915,-0.59223 2.034357,-0.90287 3.171899,-1.18907 1.46941,-0.3697 2.261573,-0.46173 3.971851,-0.46199 z m 71.882439,2.26188 c -0.33341,1.85228 -0.70357,4.03817 -0.99994,6.33501 l -2.51922,0.0739 0.18551,5.037929 1.77819,-0.0739 c -0.18523,2.00047 -0.29662,3.81571 -0.29662,5.22345 0,5.37164 2.14865,8.26151 6.40891,8.26151 1.40774,0 3.0747,-0.33347 4.96404,-0.96325 l -1.11105,-5.22345 c -1.07432,0.48159 -2.00087,0.74052 -2.70474,0.74052 -1.14842,0 -1.77819,-0.74083 -1.77819,-2.59312 0,-1.85229 0.1114,-3.74133 0.29663,-5.63066 l 5.14955,-0.18552 -0.18552,-5.037939 -4.29741,0.14779 c 0.29637,-1.88933 0.66721,-3.70415 1.03766,-5.48235 z m -22.897832,0.009 -6.112805,0.77825 c 1.370693,5.48277 2.111499,11.520909 2.111499,15.595939 0,0.59274 3.55e-4,1.14845 -0.03669,1.66709 -0.148183,1.85228 -0.592887,2.63033 -1.222665,2.63033 -0.444549,0 -0.926232,-0.37052 -1.444873,-0.96325 -3.40821,-4.00094 -7.483217,-10.669259 -9.965283,-19.486149 l -5.334558,1.07435 -1.11156,24.746809 6.186702,0.40721 -0.0739,-13.44724 c 1.92638,4.74186 4.482752,9.00186 7.409367,11.92847 1.333647,1.33365 3.185486,2.07481 5.000728,2.07481 2.544852,0 5.001928,-1.52594 5.906616,-5.33094 0.793019,3.97865 3.904368,6.165 9.499674,6.165 4.48255,0 8.03908,-2.03745 10.0025,-5.44566 l -3.63027,-3.18586 c -1.14841,2.11161 -3.88999,4.00079 -6.33502,4.00079 -3.408208,0 -4.445721,-0.99998 -4.445721,-3.74137 0,-0.25932 0.03737,-0.55562 0.07441,-0.81494 l 1.852081,3.22306 c 3.14889,-0.74091 7.29793,-2.25996 9.59477,-4.0752 1.40774,-1.11138 2.00039,-2.29685 2.00039,-3.44527 0,-2.63025 -3.22264,-4.964039 -7.51995,-4.964039 -0.74092,0 -1.51906,0.074 -2.29702,0.22221 -4.000947,0.739899 -7.006196,3.426339 -8.300787,6.513809 0.0028,-0.21421 0.0072,-0.42712 0.0072,-0.64285 0,-5.22345 -0.740549,-10.891689 -1.814876,-15.485359 z m 43.139492,0.24029 c -4.03799,0 -8.52052,0.51841 -11.63237,1.37046 l 1.11105,5.55677 c 0.77796,-0.18523 1.55591,-0.37029 2.37091,-0.55552 l 0.74104,20.486089 6.0756,-0.2589 -0.40721,-11.66957 1.33325,4.40851 c 3.11755,-0.77938 7.14374,-2.64155 8.91574,-3.96926 -0.48306,1.22618 -0.75241,2.58798 -0.75241,4.06435 0,4.96413 2.9265,7.44605 7.92768,7.44605 3.26003,0 5.33491,-1.37054 6.48333,-3.40806 l 0.44441,3.22306 5.37177,-0.85214 -2.18592,-11.15074 -1.59318,0.33331 2.25981,-4.22351 c -2.29684,-1.592969 -4.85272,-2.333709 -7.29775,-2.333709 -2.56379,0 -5.01777,0.79323 -6.98975,2.216399 0.38323,-0.97023 0.56792,-1.937819 0.56792,-2.867009 0,-3.18593 -2.07501,-5.96436 -5.44617,-7.00164 -1.85229,-0.59273 -4.48227,-0.81494 -7.29775,-0.81494 z m -92.433641,2.16318 c -1.248538,0.003 -2.482927,0.47624 -3.416845,1.37511 -0.914469,0.88015 -1.430397,1.97143 -1.536858,3.24838 -0.103136,1.23709 0.313776,2.54611 1.12758,3.538799 0.849584,1.03635 2.111141,1.69148 3.459221,1.79628 1.172293,0.0911 2.337613,-0.2442 3.320727,-0.95498 0.300749,-0.21745 0.799105,-0.7096 1.021643,-1.00925 0.511787,-0.6891 0.826388,-1.443729 0.957564,-2.294429 0.05616,-0.36419 0.05618,-1.05716 0,-1.4242 -0.253486,-1.65609 -1.250432,-3.03048 -2.731616,-3.76463 -0.697738,-0.34583 -1.452293,-0.51301 -2.201416,-0.51108 z m -0.03979,1.22421 c 0.248482,-1.9e-4 0.381739,0.004 0.497644,0.016 0.08241,0.12416 0.22462,0.37354 0.338481,0.63666 0.117033,0.27045 0.24761,0.65518 0.343132,0.99167 0.03061,0.10781 0.05741,0.21685 0.08268,0.32608 -0.127853,-0.021 -0.255067,-0.0397 -0.376205,-0.0558 -0.285234,-0.0379 -0.668434,-0.0519 -0.827339,-0.0548 h -0.0016 c -0.158906,0.003 -0.542103,0.0169 -0.827339,0.0548 -0.162279,0.0215 -0.334704,0.0475 -0.505912,0.078 0.02564,-0.11685 0.05309,-0.2335 0.08475,-0.34882 0.09258,-0.33731 0.220195,-0.72279 0.334863,-0.99425 0.109007,-0.25806 0.244508,-0.50174 0.326595,-0.62942 0.124833,-0.0151 0.262809,-0.02 0.5302,-0.0202 z m 1.242819,0.19689 c 0.534715,0.18716 0.991726,0.47871 1.41335,0.9002 0.456102,0.45597 0.73821,0.90772 0.931726,1.49035 0.01298,0.0391 0.024,0.0781 0.03566,0.11731 -0.0017,-7.9e-4 -0.0029,-10e-4 -0.0047,-0.002 -0.23157,-0.10548 -0.613018,-0.29173 -0.940511,-0.38912 -0.278812,-0.0829 -0.530932,-0.14995 -0.775663,-0.21033 -0.06711,-0.2818 -0.134144,-0.58152 -0.240813,-0.8971 -0.107623,-0.3184 -0.28364,-0.70946 -0.389123,-0.94103 -0.01165,-0.0256 -0.01984,-0.0451 -0.02997,-0.0682 z m -2.516126,0.0134 c -0.0082,0.0191 -0.01456,0.0346 -0.02377,0.0553 -0.103458,0.23248 -0.276013,0.62532 -0.380855,0.94465 -0.104841,0.31932 -0.169898,0.62234 -0.235128,0.90692 -0.0012,0.005 -0.0019,0.0108 -0.0031,0.016 -0.208074,0.0502 -0.421608,0.10434 -0.646472,0.18035 -0.318399,0.10762 -0.709458,0.28364 -0.941028,0.38912 -0.05329,0.0243 -0.09998,0.0446 -0.142627,0.0625 0.01513,-0.0559 0.02999,-0.1121 0.04754,-0.16588 0.36244,-1.11086 1.228,-1.98635 2.325439,-2.389 z m -8.228438,0.0729 c -0.02731,-2.9e-4 -0.06098,0.004 -0.106454,0.0155 -0.175213,0.0437 -0.313034,0.21035 -0.445967,0.35399 -0.10042,0.1085 -0.179379,0.24458 -0.258899,0.37672 -0.11447,0.19024 -0.226513,0.38524 -0.312643,0.59686 -0.105566,0.25939 -0.205116,0.52992 -0.246496,0.81546 -0.08316,0.57502 -0.07914,1.17742 0.0047,1.75234 0.04135,0.28373 0.137445,0.55373 0.241845,0.81184 0.08582,0.2122 0.198606,0.4073 0.31316,0.5979 0.07944,0.13219 0.157893,0.26833 0.258382,0.37672 0.132895,0.143339 0.275602,0.296529 0.446484,0.352429 0.07179,0.0234 0.156766,0.028 0.222726,-0.014 0.06503,-0.0414 0.130392,-0.12259 0.135392,-0.21239 0.0148,-0.266659 -0.223028,-0.449969 -0.329179,-0.692469 -0.13644,-0.31173 -0.242318,-0.64514 -0.322978,-0.98495 -0.05004,-0.21084 -0.08177,-0.42882 -0.09819,-0.6475 -0.02324,-0.30875 -0.0232,-0.62143 0,-0.93018 0.01646,-0.21911 0.04803,-0.43783 0.09819,-0.64906 0.08058,-0.33943 0.196216,-0.66651 0.322978,-0.98392 0.09582,-0.23993 0.343609,-0.42526 0.329179,-0.69194 -0.0049,-0.0902 -0.06495,-0.18809 -0.135392,-0.21394 l -5.17e-4,5.1e-4 c -0.04207,-0.0156 -0.07076,-0.0295 -0.116272,-0.03 z m 19.179191,0 c -0.04551,4.9e-4 -0.07472,0.0144 -0.116789,0.03 v -5.1e-4 c -0.07044,0.0259 -0.131021,0.12376 -0.135909,0.21394 -0.01443,0.26668 0.233355,0.45201 0.329179,0.69194 0.126762,0.31741 0.242916,0.64449 0.323494,0.98392 0.05015,0.21123 0.08173,0.42995 0.09819,0.64906 0.0232,0.30875 0.02324,0.62143 0,0.93018 -0.01642,0.21868 -0.04815,0.43666 -0.09819,0.6475 -0.08066,0.33981 -0.187054,0.67322 -0.323494,0.98495 -0.106151,0.2425 -0.343981,0.42581 -0.329179,0.692469 0.005,0.0898 0.07088,0.17095 0.135909,0.21239 0.06596,0.042 0.150932,0.0374 0.222726,0.014 0.170881,-0.0559 0.313072,-0.20909 0.445967,-0.352429 0.100489,-0.10839 0.179458,-0.24453 0.258899,-0.37672 0.114554,-0.1906 0.226819,-0.3857 0.312643,-0.5979 0.104399,-0.25811 0.201012,-0.52811 0.242362,-0.81184 0.08379,-0.57492 0.08729,-1.17732 0.0041,-1.75234 -0.04138,-0.28554 -0.140414,-0.55607 -0.24598,-0.81546 -0.08613,-0.21162 -0.198689,-0.40662 -0.313159,-0.59686 -0.07952,-0.13214 -0.157962,-0.26822 -0.258382,-0.37672 -0.132933,-0.14364 -0.271271,-0.31026 -0.446484,-0.35399 -0.04547,-0.0113 -0.07863,-0.0158 -0.105937,-0.0155 z m -17.130221,0.89865 c -0.02119,-3.4e-4 -0.04525,0.003 -0.0739,0.0134 -0.128918,0.0452 -0.237534,0.15445 -0.338481,0.25993 -0.07626,0.0797 -0.136507,0.17943 -0.196887,0.27647 -0.08693,0.13971 -0.171785,0.28281 -0.237195,0.43822 -0.08017,0.19049 -0.155648,0.38924 -0.187068,0.59893 -0.06319,0.42228 -0.06053,0.86453 0.0031,1.28674 0.0314,0.20837 0.104688,0.40679 0.183968,0.59635 0.06517,0.15583 0.150722,0.29928 0.237712,0.43925 0.06033,0.0971 0.12006,0.19686 0.19637,0.27646 0.100917,0.10528 0.209234,0.21786 0.338998,0.2589 0.05452,0.0172 0.118892,0.0205 0.168982,-0.0103 0.04938,-0.0304 0.09904,-0.0901 0.102836,-0.15606 0.01124,-0.19583 -0.169504,-0.33041 -0.250114,-0.5085 -0.10361,-0.22893 -0.183696,-0.4734 -0.244946,-0.72295 -0.038,-0.15484 -0.06246,-0.31534 -0.07493,-0.47594 -0.01765,-0.22674 -0.01762,-0.45642 0,-0.68317 0.0125,-0.16091 0.03685,-0.32133 0.07493,-0.47645 0.06119,-0.24927 0.148686,-0.48934 0.244946,-0.72244 0.07277,-0.1762 0.261074,-0.31265 0.250114,-0.5085 -0.0037,-0.0662 -0.04935,-0.1376 -0.102836,-0.15658 -0.03195,-0.0115 -0.06028,-0.0232 -0.0956,-0.0238 z m 15.08125,0 c -0.03533,5.8e-4 -0.06365,0.0123 -0.0956,0.0238 -0.05349,0.019 -0.09964,0.0904 -0.103353,0.15658 -0.01096,0.19585 0.177346,0.3323 0.250114,0.5085 0.09626,0.2331 0.184273,0.47317 0.245463,0.72244 0.03808,0.15512 0.06191,0.31554 0.07441,0.47645 0.01762,0.22675 0.01765,0.45643 0,0.68317 -0.01247,0.1606 -0.03641,0.3211 -0.07441,0.47594 -0.06125,0.24955 -0.141853,0.49402 -0.245463,0.72295 -0.08061,0.17809 -0.261354,0.31267 -0.250114,0.5085 0.0038,0.066 0.05397,0.12563 0.103353,0.15606 0.05009,0.0309 0.114462,0.0275 0.168982,0.0103 0.129764,-0.041 0.23808,-0.15362 0.338997,-0.2589 0.07631,-0.0796 0.136045,-0.17939 0.196371,-0.27646 0.08699,-0.13997 0.172021,-0.28342 0.237195,-0.43925 0.07928,-0.18956 0.152567,-0.38798 0.183968,-0.59635 0.06363,-0.42221 0.06681,-0.86446 0.0036,-1.28674 -0.03142,-0.20969 -0.106904,-0.40844 -0.187069,-0.59893 -0.06541,-0.15541 -0.150785,-0.29851 -0.237711,-0.43822 -0.06038,-0.097 -0.120114,-0.19678 -0.196371,-0.27647 -0.100947,-0.10548 -0.210079,-0.21472 -0.338997,-0.25993 -0.02864,-0.01 -0.05219,-0.0138 -0.07338,-0.0134 z m 85.511586,0.83923 c 1.55592,0 2.96386,0.11136 3.96409,0.40773 1.33365,0.37045 2.1115,1.29658 2.1115,2.37091 0,0.74092 -0.37045,1.592789 -1.18545,2.333709 -1.3707,1.33365 -4.92698,2.59312 -7.33496,3.18585 l -0.25941,-7.594369 -5.70508,0.18552 c 2.85252,-0.55569 5.89019,-0.88935 8.40931,-0.88935 z m 37.4127,0.0863 c -3.29707,0 -5.81611,0.59288 -7.81658,1.81539 -2.25979,1.3707 -3.55637,3.333799 -3.55637,5.149039 0,1.85229 1.40742,3.48247 4.55631,4.07521 2.22275,0.4075 5.48274,1.22272 6.52002,1.59318 0.70387,0.25932 1.03766,0.44455 1.03766,0.59273 0,0.18523 -0.48191,0.29607 -1.25987,0.40721 -0.4816,0.0741 -1.51893,0.1111 -2.74144,0.1111 -1.85229,0 -4.22311,-0.11084 -6.14949,-0.40721 l 0.44441,4.88963 c 1.3707,0.11114 3.0751,0.22272 4.81625,0.22272 2.48206,0 5.03812,-0.18519 6.74222,-0.70383 2.55616,-0.81501 3.853,-2.63032 3.853,-4.40852 0,-1.63001 -1.11178,-3.26035 -3.29748,-4.11241 -2.1116,-0.815 -5.66769,-1.77789 -8.00157,-2.18539 -0.59274,-0.11114 -0.88936,-0.33373 -0.88936,-0.66715 0,-0.25932 0.22244,-0.55526 0.62994,-0.85162 0.92614,-0.66683 3.00039,-1.11156 4.55631,-1.11156 0.18523,0 0.4075,0.0372 0.59273,0.0372 0.85205,0.0741 1.33377,0.48156 1.33377,1.29657 0,0.33341 -0.11104,0.77792 -0.33331,1.29656 l 4.92734,0.81493 c 0.37046,-1.03728 0.51832,-2.00048 0.51832,-2.85253 0,-2.889579 -1.85232,-4.778819 -5.11235,-4.964039 -0.4816,-0.037 -0.92591,-0.0372 -1.37046,-0.0372 z m -136.175673,0.0667 c -0.01393,-1.9e-4 -0.02923,0.002 -0.04806,0.007 -0.08473,0.025 -0.156376,0.0853 -0.222726,0.14366 -0.05012,0.0441 -0.08951,0.0993 -0.129191,0.15296 -0.05713,0.0773 -0.113073,0.15642 -0.156063,0.24236 -0.05269,0.10534 -0.10234,0.21529 -0.12299,0.33125 -0.0416,0.23351 -0.03975,0.4781 0.0021,0.71158 0.02064,0.11522 0.06881,0.22488 0.120922,0.3297 0.04284,0.0862 0.09888,0.16548 0.156063,0.24288 0.03965,0.0537 0.07903,0.10894 0.129191,0.15296 0.06633,0.0582 0.137436,0.12045 0.222726,0.14314 0.03583,0.01 0.07818,0.0114 0.111104,-0.006 0.03246,-0.0168 0.0652,-0.0498 0.0677,-0.0863 0.0074,-0.10829 -0.111351,-0.18264 -0.164331,-0.28112 -0.0681,-0.1266 -0.12097,-0.26198 -0.16123,-0.39998 -0.02498,-0.0856 -0.04089,-0.17422 -0.04909,-0.26303 -0.0116,-0.12538 -0.01158,-0.25237 0,-0.37775 0.0082,-0.089 0.02406,-0.17777 0.04909,-0.26355 0.04022,-0.13785 0.09796,-0.27056 0.16123,-0.39946 0.04783,-0.0974 0.171531,-0.17282 0.164331,-0.28112 -0.0024,-0.0366 -0.03254,-0.0763 -0.0677,-0.0868 -0.021,-0.006 -0.03983,-0.0126 -0.06304,-0.0129 z m 11.421008,0 c -0.02322,3.2e-4 -0.04153,0.007 -0.06253,0.0129 -0.03516,0.0105 -0.06526,0.0502 -0.0677,0.0868 -0.0072,0.1083 0.116504,0.18368 0.164332,0.28112 0.06327,0.1289 0.121012,0.26161 0.16123,0.39946 0.02503,0.0858 0.04087,0.17456 0.04909,0.26355 0.01158,0.12538 0.0116,0.25237 0,0.37775 -0.0082,0.0888 -0.02411,0.17741 -0.04909,0.26303 -0.04026,0.138 -0.09313,0.27338 -0.16123,0.39998 -0.05298,0.0985 -0.171718,0.17283 -0.164332,0.28112 0.0025,0.0365 0.03524,0.0695 0.0677,0.0863 0.03292,0.0171 0.07527,0.0152 0.111104,0.006 0.08529,-0.0227 0.156396,-0.0849 0.222725,-0.14314 0.05016,-0.044 0.08954,-0.0993 0.129191,-0.15296 0.05718,-0.0774 0.113226,-0.15671 0.156063,-0.24288 0.05211,-0.10482 0.100284,-0.21448 0.120923,-0.3297 0.04182,-0.23348 0.04367,-0.47807 0.0021,-0.71158 -0.02065,-0.11596 -0.0703,-0.22591 -0.12299,-0.33125 -0.04299,-0.0859 -0.09893,-0.1651 -0.156063,-0.24236 -0.03968,-0.0537 -0.07907,-0.1089 -0.129191,-0.15296 -0.06635,-0.0583 -0.137991,-0.11866 -0.222725,-0.14366 -0.01882,-0.006 -0.03464,-0.007 -0.04858,-0.007 z m -5.740218,0.25838 c 0.107957,1e-5 0.227817,0.007 0.341064,0.0186 0.319129,0.0332 0.63607,0.0868 0.951364,0.14624 0.01347,0.003 0.02683,0.006 0.04031,0.008 0.05405,0.29166 0.103213,0.58456 0.133842,0.87953 0.01178,0.11342 0.01861,0.23363 0.0186,0.34158 -8e-6,0.10796 -0.0068,0.22782 -0.0186,0.34107 -0.02991,0.28799 -0.07773,0.57404 -0.130224,0.85886 -0.0143,0.003 -0.02859,0.006 -0.04289,0.009 -0.314763,0.0622 -0.630986,0.11858 -0.949813,0.15451 -0.113141,0.0128 -0.233111,0.0208 -0.341064,0.0217 -0.107953,9.5e-4 -0.228065,-0.005 -0.341581,-0.0155 -0.319408,-0.0303 -0.637114,-0.0813 -0.952914,-0.13798 -0.04765,-0.009 -0.095,-0.0186 -0.142627,-0.0274 -0.05521,-0.28533 -0.105439,-0.57169 -0.137976,-0.86041 -0.01277,-0.11314 -0.02075,-0.23311 -0.0217,-0.34106 -9.5e-4,-0.10796 0.0047,-0.22807 0.0155,-0.34158 0.02733,-0.28762 0.0726,-0.57318 0.122473,-0.85783 0.05449,-0.0106 0.108777,-0.0223 0.163298,-0.0326 0.315293,-0.0594 0.632233,-0.11311 0.951363,-0.14624 0.113419,-0.0118 0.233624,-0.0186 0.341581,-0.0186 z m 1.965255,0.30644 c 0.07253,0.0179 0.144673,0.037 0.216524,0.0574 0.33649,0.0955 0.721221,0.22609 0.991671,0.34313 0.202397,0.0876 0.397788,0.1926 0.533817,0.27388 0.02689,0.26355 0.02543,0.52515 -0.0016,0.78187 -0.135502,0.0829 -0.331607,0.19111 -0.535885,0.28163 -0.269417,0.11939 -0.652926,0.25347 -0.98857,0.35192 -0.07015,0.0206 -0.140541,0.0397 -0.211356,0.0579 0.01186,-0.0787 0.02307,-0.15663 0.03307,-0.23203 0.03786,-0.28523 0.05141,-0.66843 0.05426,-0.82734 v -0.002 c -0.0029,-0.15891 -0.01641,-0.5421 -0.05426,-0.82734 -0.01116,-0.0841 -0.02425,-0.17132 -0.03772,-0.25942 z m -4.0535,0.0326 c -0.01128,0.0795 -0.02158,0.15797 -0.03101,0.2341 -0.03536,0.28555 -0.04553,0.66892 -0.04703,0.82785 v 0.002 c 0.0042,0.15888 0.02114,0.54193 0.0615,0.82682 0.01078,0.0761 0.02295,0.15457 0.03566,0.2341 -0.03792,-0.01 -0.07596,-0.0186 -0.113688,-0.0289 -0.337311,-0.0926 -0.72331,-0.21968 -0.994772,-0.33435 -0.269007,-0.11363 -0.525205,-0.25742 -0.647506,-0.33796 -0.02173,-0.22741 -0.02254,-0.46617 -0.0031,-0.70538 0.0018,-0.001 0.0034,-0.002 0.0052,-0.004 0.120213,-0.0811 0.378605,-0.2292 0.649056,-0.34623 0.27045,-0.11704 0.655181,-0.24761 0.99167,-0.34313 0.0312,-0.009 0.06271,-0.0165 0.09405,-0.0248 z m 5.647718,2.13941 c -0.342071,1.119599 -1.188906,2.057999 -2.343527,2.474259 0.105658,-0.23178 0.291007,-0.61147 0.38809,-0.93792 0.09739,-0.32749 0.175173,-0.621369 0.24288,-0.905379 0.0014,-0.006 0.0023,-0.0118 0.0036,-0.0176 0.244128,-0.0625 0.495602,-0.1312 0.773596,-0.21652 0.326024,-0.10006 0.704579,-0.28927 0.935344,-0.39687 z m -7.232634,0.014 c 0.03532,0.0147 0.07026,0.0289 0.112138,0.0475 0.232482,0.10346 0.624803,0.27601 0.944128,0.38086 0.234427,0.077 0.456818,0.1305 0.672828,0.18035 0.0011,0.005 0.002,0.009 0.0031,0.0139 0.07018,0.2834 0.150387,0.576669 0.250631,0.903299 0.100247,0.32663 0.289892,0.70678 0.397392,0.93741 0.0024,0.005 0.0038,0.009 0.0062,0.014 -1.130281,-0.38768 -2.018141,-1.30714 -2.386418,-2.477369 z m 151.716844,0.0408 c -3.29707,0 -5.81611,0.59237 -7.81658,1.814879 -2.25979,1.37069 -3.55637,3.33431 -3.55637,5.14956 0,1.85228 1.40794,3.48247 4.55683,4.0752 2.22274,0.4075 5.48273,1.22221 6.52001,1.59267 0.70387,0.25932 1.03715,0.44454 1.03715,0.59273 0,0.18523 -0.48191,0.29659 -1.25987,0.40772 -0.4816,0.0741 -1.51841,0.11111 -2.74092,0.11111 -1.85229,0 -4.22363,-0.11136 -6.15001,-0.40773 l 0.44493,4.89014 c 1.37069,0.11114 3.07458,0.22221 4.81573,0.22221 2.48206,0 5.03812,-0.18519 6.74222,-0.70383 2.55616,-0.81501 3.853,-2.63032 3.853,-4.40852 0,-1.63001 -1.11126,-3.25984 -3.29696,-4.11189 -2.11161,-0.81501 -5.66821,-1.77841 -8.00209,-2.18592 -0.59274,-0.11113 -0.88936,-0.33321 -0.88936,-0.66662 0,-0.25932 0.22244,-0.55578 0.62994,-0.85215 0.92614,-0.66682 3.00091,-1.11104 4.55683,-1.11104 0.18523,0 0.4075,0.0367 0.59273,0.0367 0.85205,0.0741 1.33376,0.48156 1.33376,1.29656 0,0.33341 -0.11155,0.77792 -0.33383,1.29656 l 4.92735,0.81546 c 0.37046,-1.03728 0.51883,-2.00049 0.51883,-2.85254 0,-2.88957 -1.85232,-4.779329 -5.11235,-4.964559 -0.48159,-0.037 -0.92642,-0.0367 -1.37097,-0.0367 z m -146.835491,0.69782 c -0.0265,0.11573 -0.05441,0.23104 -0.08682,0.345199 -0.09552,0.33649 -0.226099,0.72123 -0.343132,0.99167 -0.09558,0.22088 -0.209905,0.42926 -0.293522,0.56535 -0.133025,0.0175 -0.276178,0.0306 -0.449068,0.0341 -0.306535,0.007 -0.408092,0.006 -0.584461,-0.0212 -0.08541,-0.13387 -0.208096,-0.35061 -0.310575,-0.58187 -0.119389,-0.26942 -0.253467,-0.65292 -0.351917,-0.98857 -0.03303,-0.112619 -0.06163,-0.226359 -0.08888,-0.340549 0.16227,0.027 0.325422,0.0502 0.47904,0.0692 0.285555,0.0354 0.668413,0.0455 0.82734,0.047 h 0.0015 c 0.158874,-0.004 0.542446,-0.0211 0.82734,-0.0615 0.120183,-0.017 0.246304,-0.037 0.373104,-0.0589 z m 110.484221,4.491719 c 1.37069,0 2.85227,0.44477 4.3341,1.59319 l -3.33416,0.66662 c 0.037,0.22228 0.0372,0.44487 0.0372,0.66714 0,2.96367 -1.77818,5.77898 -4.14911,5.77898 -2.07456,0 -2.88974,-1.22239 -2.88974,-3.29696 0,-2.51911 2.59349,-5.40897 6.0017,-5.40897 z m -49.7148,0.0181 c 1.03729,0 1.6304,0.40724 1.6304,0.88883 0,0.29637 -0.2224,0.62984 -0.74104,0.96325 -1.29661,0.81501 -4.66813,2.00026 -6.964962,2.44481 0.518641,-1.63001 2.074922,-3.40786 4.594032,-4.07468 0.55569,-0.14819 1.07407,-0.22221 1.48157,-0.22221 z" /><ellipse
       style="display:inline;fill:#ffffff;fill-opacity:1;stroke-width:0.963001"
       id="ellipse5"
       cx="137.18646"
       cy="99.384117"
       rx="2.4473958"
       ry="2.0174479" /></g></svg>
